<svg width="111" xmlns="http://www.w3.org/2000/svg" height="145" id="screenshot-f2c240fb-fe58-801b-8007-0bd545cb6b33" viewBox="0 -0 111 145" xmlns:xlink="http://www.w3.org/1999/xlink" fill="none" version="1.1"><g id="shape-f2c240fb-fe58-801b-8007-0bd545cb6b33"><defs><clipPath id="frame-clip-f2c240fb-fe58-801b-8007-0bd545cb6b33-render-1" class="frame-clip frame-clip-def"><rect rx="0" ry="0" x="0" y="0" width="111" height="144.99999999999994" transform="matrix(1.000000, 0.000000, 0.000000, 1.000000, 0.000000, 0.000000)"/></clipPath></defs><g class="frame-container-wrapper"><g class="frame-container-blur"><g class="frame-container-shadows"><g clip-path="url(#frame-clip-f2c240fb-fe58-801b-8007-0bd545cb6b33-render-1)" fill="none"><g class="fills" id="fills-f2c240fb-fe58-801b-8007-0bd545cb6b33"><rect rx="0" ry="0" x="0" y="0" width="111" height="144.99999999999994" transform="matrix(1.000000, 0.000000, 0.000000, 1.000000, 0.000000, 0.000000)" class="frame-background"/></g><g class="frame-children"><g id="shape-f2c240fb-fe58-801b-8007-0bd5c5d76ffc"><defs><linearGradient id="fill-color-gradient-render-2-0" x1="0.5" y1="0" x2="0.5" y2="1" gradientTransform=""><stop offset="0" stop-color="#aa00ff" stop-opacity="1"/><stop offset="1" stop-color="#aa00ff" stop-opacity="0"/></linearGradient><pattern patternUnits="userSpaceOnUse" x="3.5" y="49.99999999999994" width="28" height="95" id="fill-0-render-2"><g><rect width="28" height="95" style="fill: url(&quot;#fill-color-gradient-render-2-0&quot;);"/></g></pattern></defs><g class="fills" id="fills-f2c240fb-fe58-801b-8007-0bd5c5d76ffc"><rect rx="6" ry="6" x="3.5" y="49.99999999999994" transform="matrix(1.000000, 0.000000, 0.000000, 1.000000, 0.000000, 0.000000)" width="28" height="95" fill="url(#fill-0-render-2)"/></g></g><g id="shape-f2c240fb-fe58-801b-8007-0bd5c3900ad3"><defs><linearGradient id="fill-color-gradient-render-3-0" x1="0.5" y1="0" x2="0.5" y2="1" gradientTransform=""><stop offset="0" stop-color="#6c00a2" stop-opacity="1"/><stop offset="1" stop-color="#a27400" stop-opacity="0.2"/></linearGradient><pattern patternUnits="userSpaceOnUse" x="41.5" y="0.9999999999999432" width="28" height="144" id="fill-0-render-3"><g><rect width="28" height="144" style="fill: url(&quot;#fill-color-gradient-render-3-0&quot;);"/></g></pattern></defs><g class="fills" id="fills-f2c240fb-fe58-801b-8007-0bd5c3900ad3"><path d="M47.5,0.9999999999999432 h16 a6,6 0 0 1 6,6 v138 a0,0 0 0 1 0,0 h-28 a0,0 0 0 1 0,0 v-138 a6,6 0 0 1 6,-6 z" x="41.5" y="0.9999999999999432" transform="matrix(1.000000, 0.000000, 0.000000, 1.000000, 0.000000, 0.000000)" width="28" height="144" fill="url(#fill-0-render-3)"/></g></g><g id="shape-f2c240fb-fe58-801b-8007-0bd5b1426719"><defs><linearGradient id="fill-color-gradient-render-4-0" x1="0.5" y1="0" x2="0.5" y2="1" gradientTransform=""><stop offset="0" stop-color="#eaf200" stop-opacity="1"/><stop offset="1" stop-color="#f20000" stop-opacity="0"/></linearGradient><pattern patternUnits="userSpaceOnUse" x="79.5" y="49.99999999999994" width="28" height="95" id="fill-0-render-4"><g><rect width="28" height="95" style="fill: url(&quot;#fill-color-gradient-render-4-0&quot;);"/></g></pattern></defs><g class="fills" id="fills-f2c240fb-fe58-801b-8007-0bd5b1426719"><path d="M85.5,49.99999999999994 h16 a6,6 0 0 1 6,6 v89 a0,0 0 0 1 0,0 h-28 a0,0 0 0 1 0,0 v-89 a6,6 0 0 1 6,-6 z" x="79.5" y="49.99999999999994" transform="matrix(1.000000, 0.000000, 0.000000, 1.000000, 0.000000, 0.000000)" width="28" height="95" fill="url(#fill-0-render-4)"/></g></g></g></g></g></g></g></g></svg>